# xmcd
#
# Track frame offsets: 
#        150
#        14330
#        29948
#        42909
#        58791
#        77338
#        92360
#        111182
#        127039
#        141061
#        157824
#        173586
#        190087
#        207532
#        226136
#        243734
#        256995
#        274426
#        294369
#
# Disc length: 4185 seconds
#
# Revision: 0
# Processed by: cddbd v1.5.2PL0 Copyright (c) Steve Scherf et al.
# Submitted via: ExactAudioCopy v1.0b1
#
DISCID=0a105713
DTITLE=Various Artist - CDX Vol 525
DYEAR=2011
DGENRE=Country
TTITLE0=The Dirt Drifters - Always A Reason
TTITLE1=Darius Rucker - I Got Nothin'
TTITLE2=Jerrod Niemann - One More Drinkin' Song
TTITLE3=Hunter Hayes - Storm Warning
TTITLE4=Kenny Chesney - You And Tequila w Grace Potter
TTITLE5=Locash Cowboys - You Got Me
TTITLE6=DJ Miller - Between Sundays
TTITLE7=Colt Ford - She Likes To Ride In Trucks
TTITLE8=Doug Stokes - Back Road Pickers
TTITLE9=Russell Hitchcock - Far Enough Away From Colorado
TTITLE10=Lacy Green - For The Summertime
TTITLE11=Steve Richard - Love's Gotta Go Somewhere
TTITLE12=Derek Anthony - Neverland
TTITLE13=Snuffy Smith - Private Daniel's Prayers
TTITLE14=David Adam Byrnes - She Only Wanted Flowers
TTITLE15=Brother Trouble - Summer's Little Angel
TTITLE16=The Taylors - Will You Marry Us
TTITLE17=Smokey River Boys - Happy Father's Day Mama
TTITLE18=Kristina Cornell - Little Red Balloon
EXTD=
EXTT0=
EXTT1=
EXTT2=
EXTT3=
EXTT4=
EXTT5=
EXTT6=
EXTT7=
EXTT8=
EXTT9=
EXTT10=
EXTT11=
EXTT12=
EXTT13=
EXTT14=
EXTT15=
EXTT16=
EXTT17=
EXTT18=
PLAYORDER=
